<svg xmlns="http://www.w3.org/2000/svg" viewBox="0 0 498 498"><path fill="#ccc" d="M436.8 0H62.2C26.2 0 .1 28 .1 62v374c0 36 28 62 62.1 62h374.6c35.1 0 61.1-28 61.1-62V62c2-34-25-62-61.1-62zM249.5 153c55.1 0 101.2 44 101.2 98s-46.1 97-101.2 97-101.2-44-101.2-97c2.1-56 46.1-98 101.2-98zm187.3 270c0 11-5 16-16 16H77.3c-12 0-17-5-17-16V204l40.1 8c-5 13-7 27-7 42 0 83 70.1 151 154.2 151a152.1 152.1 0 0 0 148.3-193l38.1-9 2.8 220zm0-281c0 8-7 16-16 16h-62.1c-8 0-16-7-16-16V78c0-8 6-16 16-16h62.1c8 0 16 7 16 16v64z"/></svg>