<svg xmlns="http://www.w3.org/2000/svg" viewBox="0 0 498 498"><path fill="#ccc" d="M485.2 385.2c-18 10.4-88.1 13.9-104.9 1.2-9.3-6.4-17.4-15.1-26.1-23.2-5.2-5.2-12.7-8.1-17.4-14.5l-10.4-15.6c-7-8.7-18-15.6-27.2-5.2-12.7 15.1 2.3 45.2-15.1 56.8a31.1 31.1 0 0 1-19.1 4.6l-15.6.6c-9.3 0-24.3 0-35.3-1.2-12.2-2.3-21.4-8.7-33-13.9a175 175 0 0 1-55.6-38.8c-40.6-46.9-95-111.8-115.9-170.9C5 152.3-6.6 128.6 5 118.7c14.5-11 88.1-13.9 99.1 2.9 4.6 7 8.1 16.8 11 24.9 3.5 9.3 5.8 18.5 12.2 26.6 5.2 7.5 9.8 15.6 13.9 23.2 4.6 9.3 9.3 18.5 15.6 26.6 3.5 6.4 14.5 18 21.4 18.5 16.2 2.3 15.1-37.7 13.9-47.5-1.7-9.3-1.7-19.1-1.7-29.5 0-8.1.6-19.1-3.5-26.1-8.1-11-25.5-2.9-27.2-16.8 3.5-4.1 2.3-8.1 22-13.9a92.8 92.8 0 0 1 35.3-4.1c20.3 1.7 42.3-3.5 61.4 3.5 18.5 5.8 16.2 33 15.6 49.2v65.5c0 9.8-.6 19.7 11 19.1 11.6-1.2 13.3-11 18.5-18.5l22.6-34.2c10.4-15.1 13.9-32.4 23.8-47.5 3.5-5.2 6.4-18 12.2-22.6 3.5-2.9 12.2-1.2 16.8-1.2h11.6l27.8.6c13.9.6 28.4-2.3 42.3-.6 57.4 8.1-72.4 131.5-65.5 154.1 4.6 15.1 34.8 32.4 45.2 44.6 15.7 15.9 59.1 48.3 24.9 69.7z"/></svg>